<svg xmlns="http://www.w3.org/2000/svg" viewBox="0 0 700 200" width="700" height="200">
  <!-- CARTOON -->
  <!-- C -->
  <rect x="0" y="0" width="100" height="100" fill="white" />
  <text x="50" y="75" font-family="'Arial Black', Impact, sans-serif" font-weight="900" font-size="80" fill="black" text-anchor="middle">C</text>
  <!-- A -->
  <rect x="100" y="0" width="100" height="100" fill="black" />
  <text x="150" y="75" font-family="'Arial Black', Impact, sans-serif" font-weight="900" font-size="80" fill="white" text-anchor="middle">A</text>
  <!-- R -->
  <rect x="200" y="0" width="100" height="100" fill="white" />
  <text x="250" y="75" font-family="'Arial Black', Impact, sans-serif" font-weight="900" font-size="80" fill="black" text-anchor="middle">R</text>
  <!-- T -->
  <rect x="300" y="0" width="100" height="100" fill="black" />
  <text x="350" y="75" font-family="'Arial Black', Impact, sans-serif" font-weight="900" font-size="80" fill="white" text-anchor="middle">T</text>
  <!-- O -->
  <rect x="400" y="0" width="100" height="100" fill="white" />
  <text x="450" y="75" font-family="'Arial Black', Impact, sans-serif" font-weight="900" font-size="80" fill="black" text-anchor="middle">O</text>
  <!-- O -->
  <rect x="500" y="0" width="100" height="100" fill="black" />
  <text x="550" y="75" font-family="'Arial Black', Impact, sans-serif" font-weight="900" font-size="80" fill="white" text-anchor="middle">O</text>
  <!-- N -->
  <rect x="600" y="0" width="100" height="100" fill="white" />
  <text x="650" y="75" font-family="'Arial Black', Impact, sans-serif" font-weight="900" font-size="80" fill="black" text-anchor="middle">N</text>

  <!-- NETWORK -->
  <!-- N -->
  <rect x="0" y="100" width="100" height="100" fill="black" />
  <text x="50" y="175" font-family="'Arial Black', Impact, sans-serif" font-weight="900" font-size="80" fill="white" text-anchor="middle">N</text>
  <!-- E -->
  <rect x="100" y="100" width="100" height="100" fill="white" />
  <text x="150" y="175" font-family="'Arial Black', Impact, sans-serif" font-weight="900" font-size="80" fill="black" text-anchor="middle">E</text>
  <!-- T -->
  <rect x="200" y="100" width="100" height="100" fill="black" />
  <text x="250" y="175" font-family="'Arial Black', Impact, sans-serif" font-weight="900" font-size="80" fill="white" text-anchor="middle">T</text>
  <!-- W -->
  <rect x="300" y="100" width="100" height="100" fill="white" />
  <text x="350" y="175" font-family="'Arial Black', Impact, sans-serif" font-weight="900" font-size="80" fill="black" text-anchor="middle">W</text>
  <!-- O -->
  <rect x="400" y="100" width="100" height="100" fill="black" />
  <text x="450" y="175" font-family="'Arial Black', Impact, sans-serif" font-weight="900" font-size="80" fill="white" text-anchor="middle">O</text>
  <!-- R -->
  <rect x="500" y="100" width="100" height="100" fill="white" />
  <text x="550" y="175" font-family="'Arial Black', Impact, sans-serif" font-weight="900" font-size="80" fill="black" text-anchor="middle">R</text>
  <!-- K -->
  <rect x="600" y="100" width="100" height="100" fill="black" />
  <text x="650" y="175" font-family="'Arial Black', Impact, sans-serif" font-weight="900" font-size="80" fill="white" text-anchor="middle">K</text>
</svg>
